<svg width="12" height="11" viewBox="0 0 12 11" fill="none" xmlns="http://www.w3.org/2000/svg">
<path d="M4.869 10.1308C4.811 10.0743 4.563 9.86093 4.359 9.6622C3.076 8.49708 0.975999 5.45762 0.335 3.86678C0.231999 3.62518 0.0139996 3.01437 -1.2244e-06 2.68802C-1.19707e-06 2.3753 0.0719993 2.0772 0.218 1.79274C0.422 1.43814 0.742999 1.15368 1.122 0.997808C1.385 0.897467 2.172 0.741597 2.186 0.741597C3.047 0.585728 4.446 0.499999 5.992 0.499999C7.465 0.5 8.807 0.585728 9.681 0.713346C9.695 0.727959 10.673 0.883828 11.008 1.05431C11.62 1.36702 12 1.97784 12 2.63152L12 2.68802C11.985 3.11374 11.605 4.00901 11.591 4.00901C10.949 5.51413 8.952 8.48344 7.625 9.67681C7.625 9.67681 7.284 10.0129 7.071 10.159C6.765 10.387 6.386 10.5 6.007 10.5C5.584 10.5 5.19 10.3724 4.869 10.1308Z" fill="white"/>
</svg>
